<svg width="24" height="24" viewBox="0 0 24 24" fill="none" xmlns="http://www.w3.org/2000/svg">
<path fill-rule="evenodd" clip-rule="evenodd" d="M9.25049 3.22989V17.9447C9.25049 18.5222 8.91899 19.0487 8.39887 19.2975L2.86163 21.9556C2.4628 22.149 2.00049 21.8569 2.00049 21.4157V6.09973C2.00049 5.53253 2.31923 5.01384 2.826 4.75896L6.255 3.03596C6.50174 2.91198 6.80227 3.01149 6.92626 3.25824C7.05024 3.50498 6.95072 3.80552 6.70398 3.9295L3.27515 5.65241C3.10665 5.73716 3.00049 5.90992 3.00049 6.09973V20.7797L7.96671 18.3957C8.13996 18.3128 8.25049 18.1373 8.25049 17.9447V2.59973C8.25049 2.16004 8.70777 1.87056 9.1048 2.05704L14.7832 4.72023C15.3096 4.96767 15.6455 5.49699 15.6455 6.07873V20.7642L20.7133 18.3715C20.8886 18.2888 21.0005 18.1127 21.0005 17.9197V3.2505L17.475 4.94441C17.2261 5.064 16.9274 4.95917 16.8078 4.71027C16.6882 4.46137 16.793 4.16264 17.0419 4.04305L21.1439 2.07217C21.5403 1.88596 22.0005 2.17407 22.0005 2.61573V17.9197C22.0005 18.5002 21.6649 19.0284 21.14 19.2759L15.5066 21.9356C15.3955 21.9895 15.2795 22.0057 15.1699 21.9915C15.0928 21.9944 15.0138 21.9794 14.9392 21.9444L10.4772 19.8514C10.2271 19.7341 10.1195 19.4364 10.2368 19.1864C10.3541 18.9364 10.6518 18.8288 10.9018 18.9461L14.6455 20.7021V6.07873C14.6455 5.88443 14.5334 5.70777 14.3582 5.62542L9.25049 3.22989Z" fill="#CC2128"/>
<path d="M9.25049 3.22989L9.35664 3.00355L9.00049 2.83651V3.22989H9.25049ZM8.39887 19.2975L8.29099 19.072L8.29068 19.0721L8.39887 19.2975ZM2.86163 21.9556L2.75343 21.7303L2.75256 21.7307L2.86163 21.9556ZM2.826 4.75896L2.71375 4.53558L2.71366 4.53562L2.826 4.75896ZM6.255 3.03596L6.14275 2.81258L6.14275 2.81258L6.255 3.03596ZM6.70398 3.9295L6.81623 4.15288L6.81623 4.15288L6.70398 3.9295ZM3.27515 5.65241L3.16291 5.42903L3.16282 5.42907L3.27515 5.65241ZM3.00049 20.7797H2.75049V21.1771L3.10868 21.0051L3.00049 20.7797ZM7.96671 18.3957L7.85883 18.1702L7.85852 18.1703L7.96671 18.3957ZM9.1048 2.05704L8.99852 2.28333L8.99864 2.28339L9.1048 2.05704ZM14.7832 4.72023L14.8896 4.49398L14.8894 4.49389L14.7832 4.72023ZM15.6455 20.7642H15.3955V21.1587L15.7522 20.9903L15.6455 20.7642ZM20.7133 18.3715L20.6067 18.1453L20.6065 18.1454L20.7133 18.3715ZM21.0005 3.2505H21.2505V2.85302L20.8922 3.02516L21.0005 3.2505ZM17.475 4.94441L17.3668 4.71907L17.3668 4.71907L17.475 4.94441ZM17.0419 4.04305L16.9337 3.81771L16.9337 3.81771L17.0419 4.04305ZM21.1439 2.07217L21.0376 1.84587L21.0357 1.84683L21.1439 2.07217ZM21.14 19.2759L21.0334 19.0497L21.0332 19.0498L21.14 19.2759ZM15.5066 21.9356L15.3999 21.7096L15.3976 21.7107L15.5066 21.9356ZM15.1699 21.9915L15.2021 21.7436L15.1814 21.7409L15.1605 21.7417L15.1699 21.9915ZM14.9392 21.9444L15.0453 21.7181L15.0453 21.7181L14.9392 21.9444ZM10.4772 19.8514L10.5833 19.6251L10.5833 19.6251L10.4772 19.8514ZM10.2368 19.1864L10.4632 19.2926L10.4632 19.2926L10.2368 19.1864ZM10.9018 18.9461L11.008 18.7197L11.008 18.7197L10.9018 18.9461ZM14.6455 20.7021L14.5393 20.9284L14.8955 21.0955V20.7021H14.6455ZM14.3582 5.62542L14.4645 5.39917L14.4643 5.39907L14.3582 5.62542ZM9.50049 17.9447V3.22989H9.00049V17.9447H9.50049ZM8.50676 19.523C9.11386 19.2326 9.50049 18.6183 9.50049 17.9447H9.00049C9.00049 18.4261 8.72411 18.8648 8.29099 19.072L8.50676 19.523ZM2.96982 22.181L8.50706 19.5229L8.29068 19.0721L2.75343 21.7303L2.96982 22.181ZM1.75049 21.4157C1.75049 22.0404 2.40495 22.4549 2.97069 22.1806L2.75256 21.7307C2.52064 21.8431 2.25049 21.6734 2.25049 21.4157H1.75049ZM1.75049 6.09973V21.4157H2.25049V6.09973H1.75049ZM2.71366 4.53562C2.12223 4.83309 1.75049 5.43834 1.75049 6.09973H2.25049C2.25049 5.62671 2.51623 5.1946 2.93833 4.9823L2.71366 4.53562ZM6.14275 2.81258L2.71375 4.53558L2.93824 4.98235L6.36724 3.25935L6.14275 2.81258ZM7.14964 3.14599C6.96367 2.77588 6.51287 2.6266 6.14275 2.81258L6.36724 3.25935C6.49061 3.19735 6.64088 3.24711 6.70287 3.37048L7.14964 3.14599ZM6.81623 4.15288C7.18634 3.96691 7.33562 3.51611 7.14964 3.14599L6.70287 3.37048C6.76487 3.49386 6.71511 3.64412 6.59173 3.70611L6.81623 4.15288ZM3.3874 5.8758L6.81623 4.15288L6.59173 3.70611L3.16291 5.42903L3.3874 5.8758ZM3.25049 6.09973C3.25049 6.00376 3.30395 5.91777 3.38748 5.87576L3.16282 5.42907C2.90935 5.55656 2.75049 5.81608 2.75049 6.09973H3.25049ZM3.25049 20.7797V6.09973H2.75049V20.7797H3.25049ZM7.85852 18.1703L2.8923 20.5543L3.10868 21.0051L8.07491 18.6211L7.85852 18.1703ZM8.00049 17.9447C8.00049 18.0412 7.94504 18.1289 7.85883 18.1702L8.0746 18.6212C8.33488 18.4967 8.50049 18.2333 8.50049 17.9447H8.00049ZM8.00049 2.59973V17.9447H8.50049V2.59973H8.00049ZM9.21108 1.83076C8.64852 1.56653 8.00049 1.97657 8.00049 2.59973H8.50049C8.50049 2.3435 8.76702 2.1746 8.99852 2.28333L9.21108 1.83076ZM14.8894 4.49389L9.21095 1.8307L8.99864 2.28339L14.677 4.94658L14.8894 4.49389ZM15.8955 6.07873C15.8955 5.40017 15.5036 4.78266 14.8896 4.49398L14.6768 4.94648C15.1155 5.15268 15.3955 5.59382 15.3955 6.07873H15.8955ZM15.8955 20.7642V6.07873H15.3955V20.7642H15.8955ZM20.6065 18.1454L15.5387 20.5382L15.7522 20.9903L20.82 18.5975L20.6065 18.1454ZM20.7505 17.9197C20.7505 18.0155 20.6949 18.1038 20.6067 18.1453L20.8199 18.5976C21.0824 18.4739 21.2505 18.2099 21.2505 17.9197H20.7505ZM20.7505 3.2505V17.9197H21.2505V3.2505H20.7505ZM17.5833 5.16975L21.1088 3.47584L20.8922 3.02516L17.3668 4.71907L17.5833 5.16975ZM16.5825 4.81854C16.7619 5.19189 17.2099 5.34913 17.5833 5.16975L17.3668 4.71907C17.2423 4.77886 17.0929 4.72645 17.0331 4.602L16.5825 4.81854ZM16.9337 3.81771C16.5603 3.9971 16.4031 4.44519 16.5825 4.81854L17.0331 4.602C16.9734 4.47755 17.0258 4.32819 17.1502 4.26839L16.9337 3.81771ZM21.0357 1.84683L16.9337 3.81771L17.1502 4.26839L21.2522 2.2975L21.0357 1.84683ZM22.2505 2.61573C22.2505 1.98935 21.5985 1.58247 21.0376 1.84588L21.2502 2.29845C21.4822 2.18946 21.7505 2.35879 21.7505 2.61573H22.2505ZM22.2505 17.9197V2.61573H21.7505V17.9197H22.2505ZM21.2466 19.502C21.8589 19.2133 22.2505 18.5971 22.2505 17.9197H21.7505C21.7505 18.4032 21.4709 18.8435 21.0334 19.0497L21.2466 19.502ZM15.6134 22.1617L21.2467 19.5019L21.0332 19.0498L15.3999 21.7096L15.6134 22.1617ZM15.1378 22.2394C15.2945 22.2597 15.4597 22.2362 15.6157 22.1606L15.3976 21.7107C15.3314 21.7428 15.2645 21.7517 15.2021 21.7436L15.1378 22.2394ZM14.833 22.1707C14.9446 22.2231 15.0633 22.2457 15.1793 22.2413L15.1605 21.7417C15.1223 21.7431 15.0831 21.7358 15.0453 21.7181L14.833 22.1707ZM10.371 20.0777L14.833 22.1707L15.0453 21.7181L10.5833 19.6251L10.371 20.0777ZM10.0105 19.0802C9.83457 19.4552 9.99598 19.9018 10.371 20.0777L10.5833 19.6251C10.4583 19.5664 10.4045 19.4176 10.4632 19.2926L10.0105 19.0802ZM11.008 18.7197C10.633 18.5438 10.1864 18.7052 10.0105 19.0802L10.4632 19.2926C10.5218 19.1676 10.6707 19.1138 10.7957 19.1724L11.008 18.7197ZM14.7517 20.4758L11.008 18.7197L10.7957 19.1724L14.5393 20.9284L14.7517 20.4758ZM14.3955 6.07873V20.7021H14.8955V6.07873H14.3955ZM14.2518 5.85166C14.3391 5.89271 14.3955 5.98107 14.3955 6.07873H14.8955C14.8955 5.78779 14.7276 5.52284 14.4645 5.39917L14.2518 5.85166ZM9.14433 3.45624L14.252 5.85176L14.4643 5.39907L9.35664 3.00355L9.14433 3.45624Z" fill="#CC2128"/>
</svg>
