<svg width="12" height="12" viewBox="0 0 12 12" fill="none" xmlns="http://www.w3.org/2000/svg">
<g clip-path="url(#clip0)">
<path d="M11.7311 9.48363L9.87786 7.63021C9.50874 7.26257 8.89746 7.27374 8.51548 7.65586L7.58182 8.58931C7.52283 8.5568 7.46178 8.52284 7.39758 8.48681C6.80799 8.16013 6.00103 7.71236 5.15188 6.86259C4.3002 6.01101 3.85202 5.20281 3.52434 4.61284C3.48976 4.55034 3.45663 4.49008 3.42391 4.43285L4.05053 3.80716L4.3586 3.49871C4.74117 3.11603 4.75172 2.50493 4.38346 2.13622L2.53025 0.282592C2.16199 -0.0856024 1.55043 -0.0744325 1.16786 0.308242L0.645562 0.833539L0.659835 0.847708C0.484701 1.07118 0.338354 1.32891 0.229447 1.60685C0.129056 1.87141 0.0665524 2.12387 0.0379725 2.37685C-0.206732 4.40551 0.720304 6.25955 3.23616 8.77544C6.71384 12.2529 9.51639 11.9902 9.63729 11.9774C9.90062 11.9459 10.153 11.883 10.4094 11.7834C10.685 11.6757 10.9425 11.5296 11.1659 11.3548L11.1773 11.365L11.7064 10.8468C12.0882 10.4642 12.0992 9.85292 11.7311 9.48363Z" fill="black"/>
</g>
<defs>
<clipPath id="clip0">
<rect width="12" height="12" fill="white"/>
</clipPath>
</defs>
</svg>
